<svg xmlns="http://www.w3.org/2000/svg" xmlns:xlink="http://www.w3.org/1999/xlink" width="1920" zoomAndPan="magnify" viewBox="0 0 1440 809.999993" height="1080" preserveAspectRatio="xMidYMid meet" version="1.0"><defs><clipPath id="41db31a943"><path d="M 197.417969 0 L 1242.917969 0 L 1242.917969 810 L 197.417969 810 Z M 197.417969 0 " clip-rule="nonzero"/></clipPath></defs><g clip-path="url(#41db31a943)"><path fill="#351f17" d="M 1242.847656 759.703125 C 1242.847656 787.554688 1220.253906 810.136719 1192.394531 810.136719 L 247.941406 810.136719 C 220.082031 810.136719 197.492188 787.554688 197.492188 759.703125 L 197.492188 50.609375 C 197.492188 22.75 220.082031 0.164062 247.941406 0.164062 L 1192.394531 0.164062 C 1220.253906 0.164062 1242.847656 22.75 1242.847656 50.609375 L 1242.847656 759.703125 " fill-opacity="1" fill-rule="nonzero"/></g><path fill="#e68f4b" d="M 1176.316406 714.570312 C 1176.316406 738.886719 1156.597656 758.585938 1132.285156 758.585938 L 308.050781 758.585938 C 283.738281 758.585938 264.019531 738.886719 264.019531 714.570312 L 264.019531 95.730469 C 264.019531 71.425781 283.738281 51.714844 308.050781 51.714844 L 1132.285156 51.714844 C 1156.597656 51.714844 1176.316406 71.425781 1176.316406 95.730469 L 1176.316406 714.570312 " fill-opacity="1" fill-rule="nonzero"/><path fill="#ffffff" d="M 790.761719 509.003906 L 479.371094 636.558594 L 317.375 241.351562 L 628.765625 113.796875 L 790.761719 509.003906 " fill-opacity="1" fill-rule="nonzero"/><path fill="#918f8f" d="M 558.074219 185.449219 L 418.039062 242.8125 L 414.457031 234.082031 L 554.5 176.71875 L 558.074219 185.449219 " fill-opacity="1" fill-rule="nonzero"/><path fill="#918f8f" d="M 518.5625 262.546875 L 378.539062 319.910156 L 376.738281 315.542969 L 516.78125 258.183594 L 518.5625 262.546875 " fill-opacity="1" fill-rule="nonzero"/><path fill="#918f8f" d="M 522.132812 271.242188 L 382.101562 328.605469 L 380.308594 324.238281 L 520.339844 266.878906 L 522.132812 271.242188 " fill-opacity="1" fill-rule="nonzero"/><path fill="#918f8f" d="M 525.21875 278.773438 L 385.183594 336.148438 L 383.394531 331.769531 L 523.425781 274.410156 L 525.21875 278.773438 " fill-opacity="1" fill-rule="nonzero"/><path fill="#918f8f" d="M 650.394531 235.957031 L 388.164062 343.394531 L 386.359375 339.019531 L 648.617188 231.589844 L 650.394531 235.957031 " fill-opacity="1" fill-rule="nonzero"/><path fill="#918f8f" d="M 653.230469 242.882812 L 391 350.308594 L 389.207031 345.945312 L 651.449219 238.515625 L 653.230469 242.882812 " fill-opacity="1" fill-rule="nonzero"/><path fill="#918f8f" d="M 656.078125 249.808594 L 393.835938 357.238281 L 392.042969 352.871094 L 654.285156 245.445312 L 656.078125 249.808594 " fill-opacity="1" fill-rule="nonzero"/><path fill="#918f8f" d="M 658.914062 256.75 L 396.683594 364.164062 L 394.890625 359.800781 L 657.132812 252.382812 L 658.914062 256.75 " fill-opacity="1" fill-rule="nonzero"/><path fill="#918f8f" d="M 661.75 263.664062 L 399.507812 371.089844 L 397.726562 366.726562 L 659.96875 259.296875 L 661.75 263.664062 " fill-opacity="1" fill-rule="nonzero"/><path fill="#918f8f" d="M 664.597656 270.589844 L 402.367188 378.019531 L 400.5625 373.652344 L 662.804688 266.226562 L 664.597656 270.589844 " fill-opacity="1" fill-rule="nonzero"/><path fill="#918f8f" d="M 667.433594 277.527344 L 405.191406 384.945312 L 403.410156 380.59375 L 665.640625 273.164062 L 667.433594 277.527344 " fill-opacity="1" fill-rule="nonzero"/><path fill="#918f8f" d="M 670.28125 284.457031 L 408.039062 391.871094 L 406.246094 387.507812 L 668.488281 280.089844 L 670.28125 284.457031 " fill-opacity="1" fill-rule="nonzero"/><path fill="#918f8f" d="M 673.117188 291.371094 L 410.863281 398.800781 L 409.09375 394.433594 L 671.324219 287.007812 L 673.117188 291.371094 " fill-opacity="1" fill-rule="nonzero"/><path fill="#918f8f" d="M 675.953125 298.308594 L 413.710938 405.726562 L 411.929688 401.359375 L 674.160156 293.945312 L 675.953125 298.308594 " fill-opacity="1" fill-rule="nonzero"/><path fill="#918f8f" d="M 602.257812 336.585938 L 416.558594 412.664062 L 414.765625 408.300781 L 600.464844 332.222656 L 602.257812 336.585938 " fill-opacity="1" fill-rule="nonzero"/><path fill="#918f8f" d="M 681.886719 312.78125 L 419.640625 420.207031 L 417.851562 415.84375 L 680.09375 308.414062 L 681.886719 312.78125 " fill-opacity="1" fill-rule="nonzero"/><path fill="#918f8f" d="M 684.722656 319.707031 L 422.488281 427.136719 L 420.699219 422.769531 L 682.941406 315.34375 L 684.722656 319.707031 " fill-opacity="1" fill-rule="nonzero"/><path fill="#918f8f" d="M 687.570312 326.621094 L 425.324219 434.050781 L 423.535156 429.699219 L 685.777344 322.269531 L 687.570312 326.621094 " fill-opacity="1" fill-rule="nonzero"/><path fill="#918f8f" d="M 690.417969 333.5625 L 428.160156 440.988281 L 426.382812 436.625 L 688.625 329.195312 L 690.417969 333.5625 " fill-opacity="1" fill-rule="nonzero"/><path fill="#918f8f" d="M 693.238281 340.488281 L 431.007812 447.917969 L 429.21875 443.550781 L 691.460938 336.125 L 693.238281 340.488281 " fill-opacity="1" fill-rule="nonzero"/><path fill="#918f8f" d="M 696.085938 347.414062 L 433.84375 454.84375 L 432.050781 450.480469 L 694.296875 343.050781 L 696.085938 347.414062 " fill-opacity="1" fill-rule="nonzero"/><path fill="#918f8f" d="M 698.921875 354.34375 L 436.679688 461.769531 L 434.886719 457.40625 L 697.132812 349.976562 L 698.921875 354.34375 " fill-opacity="1" fill-rule="nonzero"/><path fill="#918f8f" d="M 701.757812 361.269531 L 439.527344 468.699219 L 437.722656 464.332031 L 699.980469 356.90625 L 701.757812 361.269531 " fill-opacity="1" fill-rule="nonzero"/><path fill="#918f8f" d="M 704.605469 368.195312 L 442.363281 475.625 L 440.570312 471.257812 L 702.816406 363.832031 L 704.605469 368.195312 " fill-opacity="1" fill-rule="nonzero"/><path fill="#918f8f" d="M 707.441406 375.125 L 445.199219 482.550781 L 443.40625 478.1875 L 705.664062 370.757812 L 707.441406 375.125 " fill-opacity="1" fill-rule="nonzero"/><path fill="#918f8f" d="M 633.738281 413.410156 L 448.046875 489.476562 L 446.253906 485.113281 L 631.957031 409.046875 L 633.738281 413.410156 " fill-opacity="1" fill-rule="nonzero"/><path fill="#918f8f" d="M 716.328125 396.804688 L 454.097656 504.234375 L 452.292969 499.867188 L 714.539062 392.441406 L 716.328125 396.804688 " fill-opacity="1" fill-rule="nonzero"/><path fill="#918f8f" d="M 719.164062 403.734375 L 456.933594 511.160156 L 455.140625 506.796875 L 717.386719 399.367188 L 719.164062 403.734375 " fill-opacity="1" fill-rule="nonzero"/><path fill="#918f8f" d="M 722.011719 410.660156 L 459.757812 518.074219 L 457.976562 513.710938 L 720.222656 406.296875 L 722.011719 410.660156 " fill-opacity="1" fill-rule="nonzero"/><path fill="#918f8f" d="M 724.847656 417.585938 L 462.605469 525.015625 L 460.824219 520.648438 L 723.058594 413.222656 L 724.847656 417.585938 " fill-opacity="1" fill-rule="nonzero"/><path fill="#918f8f" d="M 651.144531 455.863281 L 465.441406 531.929688 L 463.660156 527.578125 L 649.363281 451.5 L 651.144531 455.863281 " fill-opacity="1" fill-rule="nonzero"/><path fill="#918f8f" d="M 748.863281 476.195312 L 581.875 544.597656 L 580.082031 540.234375 L 747.085938 471.828125 L 748.863281 476.195312 " fill-opacity="1" fill-rule="nonzero"/><path fill="#918f8f" d="M 752.078125 484.035156 L 620.742188 537.824219 L 618.953125 533.460938 L 750.300781 479.667969 L 752.078125 484.035156 " fill-opacity="1" fill-rule="nonzero"/><path fill="#ffffff" d="M 1009.410156 545.226562 L 672.9375 540.765625 L 678.585938 113.710938 L 1015.082031 118.171875 L 1009.410156 545.226562 " fill-opacity="1" fill-rule="nonzero"/><path fill="#918f8f" d="M 921.964844 156.449219 L 770.648438 154.433594 L 770.765625 145.015625 L 922.105469 147.019531 L 921.964844 156.449219 " fill-opacity="1" fill-rule="nonzero"/><path fill="#918f8f" d="M 855.4375 211.9375 L 704.109375 209.917969 L 704.167969 205.210938 L 855.496094 207.214844 L 855.4375 211.9375 " fill-opacity="1" fill-rule="nonzero"/><path fill="#918f8f" d="M 855.316406 221.332031 L 703.988281 219.324219 L 704.050781 214.617188 L 855.378906 216.609375 L 855.316406 221.332031 " fill-opacity="1" fill-rule="nonzero"/><path fill="#918f8f" d="M 855.199219 229.46875 L 703.882812 227.460938 L 703.941406 222.753906 L 855.257812 224.757812 L 855.199219 229.46875 " fill-opacity="1" fill-rule="nonzero"/><path fill="#918f8f" d="M 987.152344 239.050781 L 703.777344 235.304688 L 703.835938 230.582031 L 987.222656 234.332031 L 987.152344 239.050781 " fill-opacity="1" fill-rule="nonzero"/><path fill="#918f8f" d="M 987.058594 246.535156 L 703.679688 242.777344 L 703.742188 238.066406 L 987.117188 241.816406 L 987.058594 246.535156 " fill-opacity="1" fill-rule="nonzero"/><path fill="#918f8f" d="M 986.960938 254.019531 L 703.574219 250.273438 L 703.632812 245.550781 L 987.007812 249.3125 L 986.960938 254.019531 " fill-opacity="1" fill-rule="nonzero"/><path fill="#918f8f" d="M 986.855469 261.515625 L 703.480469 257.746094 L 703.527344 253.023438 L 986.914062 256.796875 L 986.855469 261.515625 " fill-opacity="1" fill-rule="nonzero"/><path fill="#918f8f" d="M 986.761719 268.988281 L 703.371094 265.242188 L 703.445312 260.519531 L 986.832031 264.269531 L 986.761719 268.988281 " fill-opacity="1" fill-rule="nonzero"/><path fill="#918f8f" d="M 986.652344 276.484375 L 703.277344 272.726562 L 703.347656 268.015625 L 986.726562 271.765625 L 986.652344 276.484375 " fill-opacity="1" fill-rule="nonzero"/><path fill="#918f8f" d="M 986.558594 283.96875 L 703.183594 280.210938 L 703.242188 275.488281 L 986.617188 279.25 L 986.558594 283.96875 " fill-opacity="1" fill-rule="nonzero"/><path fill="#918f8f" d="M 986.464844 291.453125 L 703.089844 287.695312 L 703.136719 282.972656 L 986.523438 286.734375 L 986.464844 291.453125 " fill-opacity="1" fill-rule="nonzero"/><path fill="#918f8f" d="M 986.355469 298.9375 L 702.96875 295.179688 L 703.039062 290.46875 L 986.429688 294.21875 L 986.355469 298.9375 " fill-opacity="1" fill-rule="nonzero"/><path fill="#918f8f" d="M 986.261719 306.421875 L 702.875 302.675781 L 702.945312 297.953125 L 986.320312 301.714844 L 986.261719 306.421875 " fill-opacity="1" fill-rule="nonzero"/><path fill="#918f8f" d="M 903.441406 312.816406 L 702.792969 310.148438 L 702.851562 305.425781 L 903.515625 308.09375 L 903.441406 312.816406 " fill-opacity="1" fill-rule="nonzero"/><path fill="#918f8f" d="M 986.058594 322.054688 L 702.671875 318.308594 L 702.730469 313.585938 L 986.121094 317.347656 L 986.058594 322.054688 " fill-opacity="1" fill-rule="nonzero"/><path fill="#918f8f" d="M 985.953125 329.539062 L 702.578125 325.792969 L 702.636719 321.070312 L 986.011719 324.832031 L 985.953125 329.539062 " fill-opacity="1" fill-rule="nonzero"/><path fill="#918f8f" d="M 985.859375 337.023438 L 702.472656 333.277344 L 702.542969 328.566406 L 985.917969 332.316406 L 985.859375 337.023438 " fill-opacity="1" fill-rule="nonzero"/><path fill="#918f8f" d="M 985.75 344.523438 L 702.375 340.761719 L 702.4375 336.039062 L 985.824219 339.800781 L 985.75 344.523438 " fill-opacity="1" fill-rule="nonzero"/><path fill="#918f8f" d="M 985.65625 352.007812 L 702.28125 348.246094 L 702.339844 343.539062 L 985.714844 347.285156 L 985.65625 352.007812 " fill-opacity="1" fill-rule="nonzero"/><path fill="#918f8f" d="M 985.5625 359.492188 L 702.175781 355.742188 L 702.234375 351.023438 L 985.621094 354.78125 L 985.5625 359.492188 " fill-opacity="1" fill-rule="nonzero"/><path fill="#918f8f" d="M 985.453125 366.976562 L 702.078125 363.214844 L 702.140625 358.507812 L 985.515625 362.265625 L 985.453125 366.976562 " fill-opacity="1" fill-rule="nonzero"/><path fill="#918f8f" d="M 985.347656 374.460938 L 701.972656 370.699219 L 702.042969 365.992188 L 985.417969 369.75 L 985.347656 374.460938 " fill-opacity="1" fill-rule="nonzero"/><path fill="#918f8f" d="M 985.253906 381.945312 L 701.867188 378.195312 L 701.949219 373.476562 L 985.324219 377.234375 L 985.253906 381.945312 " fill-opacity="1" fill-rule="nonzero"/><path fill="#918f8f" d="M 985.171875 389.441406 L 701.769531 385.679688 L 701.84375 380.960938 L 985.21875 384.71875 L 985.171875 389.441406 " fill-opacity="1" fill-rule="nonzero"/><path fill="#918f8f" d="M 902.339844 395.820312 L 701.6875 393.164062 L 701.734375 388.445312 L 902.410156 391.113281 L 902.339844 395.820312 " fill-opacity="1" fill-rule="nonzero"/><path fill="#918f8f" d="M 984.851562 412.855469 L 701.472656 409.09375 L 701.535156 404.386719 L 984.910156 408.144531 L 984.851562 412.855469 " fill-opacity="1" fill-rule="nonzero"/><path fill="#918f8f" d="M 984.753906 420.351562 L 701.367188 416.589844 L 701.4375 411.882812 L 984.8125 415.628906 L 984.753906 420.351562 " fill-opacity="1" fill-rule="nonzero"/><path fill="#918f8f" d="M 984.660156 427.835938 L 701.273438 424.074219 L 701.332031 419.355469 L 984.707031 423.125 L 984.660156 427.835938 " fill-opacity="1" fill-rule="nonzero"/><path fill="#918f8f" d="M 984.554688 435.308594 L 701.179688 431.558594 L 701.226562 426.839844 L 984.613281 430.597656 L 984.554688 435.308594 " fill-opacity="1" fill-rule="nonzero"/><path fill="#918f8f" d="M 901.746094 441.703125 L 701.070312 439.042969 L 701.128906 434.335938 L 901.804688 436.992188 L 901.746094 441.703125 " fill-opacity="1" fill-rule="nonzero"/><path fill="#918f8f" d="M 983.710938 498.648438 L 803.242188 496.25 L 803.3125 491.542969 L 983.769531 493.925781 L 983.710938 498.648438 " fill-opacity="1" fill-rule="nonzero"/><path fill="#918f8f" d="M 983.605469 507.117188 L 841.671875 505.242188 L 841.734375 500.519531 L 983.664062 502.394531 L 983.605469 507.117188 " fill-opacity="1" fill-rule="nonzero"/><path fill="#ffffff" d="M 1117.171875 691.738281 L 930.699219 642.289062 L 993.511719 405.632812 L 1179.960938 455.082031 L 1117.171875 691.738281 " fill-opacity="1" fill-rule="nonzero"/><path fill="#918f8f" d="M 1122.867188 463.371094 L 1038.992188 441.121094 L 1040.390625 435.902344 L 1124.242188 458.140625 L 1122.867188 463.371094 " fill-opacity="1" fill-rule="nonzero"/><path fill="#918f8f" d="M 1078.109375 484.921875 L 994.257812 462.683594 L 994.945312 460.074219 L 1078.808594 482.3125 L 1078.109375 484.921875 " fill-opacity="1" fill-rule="nonzero"/><path fill="#918f8f" d="M 1076.722656 490.132812 L 992.871094 467.890625 L 993.558594 465.28125 L 1077.433594 487.519531 L 1076.722656 490.132812 " fill-opacity="1" fill-rule="nonzero"/><path fill="#918f8f" d="M 1075.523438 494.648438 L 991.671875 472.410156 L 992.371094 469.789062 L 1076.222656 492.027344 L 1075.523438 494.648438 " fill-opacity="1" fill-rule="nonzero"/><path fill="#918f8f" d="M 1147.558594 518.394531 L 990.523438 476.75 L 991.210938 474.128906 L 1148.257812 515.773438 L 1147.558594 518.394531 " fill-opacity="1" fill-rule="nonzero"/><path fill="#918f8f" d="M 1146.453125 522.535156 L 989.417969 480.890625 L 990.117188 478.269531 L 1147.152344 519.925781 L 1146.453125 522.535156 " fill-opacity="1" fill-rule="nonzero"/><path fill="#918f8f" d="M 1145.351562 526.6875 L 988.328125 485.042969 L 989.015625 482.421875 L 1146.050781 524.078125 L 1145.351562 526.6875 " fill-opacity="1" fill-rule="nonzero"/><path fill="#918f8f" d="M 1144.257812 530.839844 L 987.222656 489.183594 L 987.910156 486.574219 L 1144.945312 528.230469 L 1144.257812 530.839844 " fill-opacity="1" fill-rule="nonzero"/><path fill="#918f8f" d="M 1143.15625 534.976562 L 986.121094 493.332031 L 986.820312 490.722656 L 1143.855469 532.367188 L 1143.15625 534.976562 " fill-opacity="1" fill-rule="nonzero"/><path fill="#918f8f" d="M 1142.050781 539.128906 L 985.027344 497.484375 L 985.714844 494.875 L 1142.738281 536.519531 L 1142.050781 539.128906 " fill-opacity="1" fill-rule="nonzero"/><path fill="#918f8f" d="M 1140.949219 543.28125 L 983.925781 501.625 L 984.613281 499.027344 L 1141.648438 540.671875 L 1140.949219 543.28125 " fill-opacity="1" fill-rule="nonzero"/><path fill="#918f8f" d="M 1139.855469 547.433594 L 982.820312 505.789062 L 983.507812 503.167969 L 1140.542969 544.8125 L 1139.855469 547.433594 " fill-opacity="1" fill-rule="nonzero"/><path fill="#918f8f" d="M 1138.753906 551.574219 L 981.71875 509.925781 L 982.40625 507.316406 L 1139.441406 548.960938 L 1138.753906 551.574219 " fill-opacity="1" fill-rule="nonzero"/><path fill="#918f8f" d="M 1137.648438 555.722656 L 980.613281 514.078125 L 981.300781 511.457031 L 1138.347656 553.113281 L 1137.648438 555.722656 " fill-opacity="1" fill-rule="nonzero"/><path fill="#918f8f" d="M 1090.710938 547.71875 L 979.523438 518.230469 L 980.210938 515.621094 L 1091.398438 545.109375 L 1090.710938 547.71875 " fill-opacity="1" fill-rule="nonzero"/><path fill="#918f8f" d="M 1135.347656 564.382812 L 978.324219 522.738281 L 979.011719 520.128906 L 1136.046875 561.785156 L 1135.347656 564.382812 " fill-opacity="1" fill-rule="nonzero"/><path fill="#918f8f" d="M 1134.257812 568.546875 L 977.21875 526.890625 L 977.910156 524.28125 L 1134.945312 565.925781 L 1134.257812 568.546875 " fill-opacity="1" fill-rule="nonzero"/><path fill="#918f8f" d="M 1133.152344 572.683594 L 976.105469 531.039062 L 976.816406 528.429688 L 1133.839844 570.074219 L 1133.152344 572.683594 " fill-opacity="1" fill-rule="nonzero"/><path fill="#918f8f" d="M 1132.050781 576.835938 L 975.015625 535.191406 L 975.714844 532.570312 L 1132.75 574.226562 L 1132.050781 576.835938 " fill-opacity="1" fill-rule="nonzero"/><path fill="#918f8f" d="M 1130.945312 580.988281 L 973.921875 539.332031 L 974.609375 536.722656 L 1131.644531 578.378906 L 1130.945312 580.988281 " fill-opacity="1" fill-rule="nonzero"/><path fill="#918f8f" d="M 1129.855469 585.128906 L 972.808594 543.484375 L 973.507812 540.875 L 1130.542969 582.519531 L 1129.855469 585.128906 " fill-opacity="1" fill-rule="nonzero"/><path fill="#918f8f" d="M 1128.738281 589.28125 L 971.714844 547.632812 L 972.402344 545.023438 L 1129.4375 586.671875 L 1128.738281 589.28125 " fill-opacity="1" fill-rule="nonzero"/><path fill="#918f8f" d="M 1127.648438 593.429688 L 970.613281 551.785156 L 971.300781 549.164062 L 1128.347656 590.820312 L 1127.648438 593.429688 " fill-opacity="1" fill-rule="nonzero"/><path fill="#918f8f" d="M 1126.542969 597.582031 L 969.507812 555.9375 L 970.195312 553.316406 L 1127.242188 594.960938 L 1126.542969 597.582031 " fill-opacity="1" fill-rule="nonzero"/><path fill="#918f8f" d="M 1125.441406 601.722656 L 968.40625 560.078125 L 969.105469 557.46875 L 1126.140625 599.113281 L 1125.441406 601.722656 " fill-opacity="1" fill-rule="nonzero"/><path fill="#918f8f" d="M 1078.5 593.726562 L 967.3125 564.226562 L 967.988281 561.617188 L 1079.203125 591.105469 L 1078.5 593.726562 " fill-opacity="1" fill-rule="nonzero"/><path fill="#918f8f" d="M 1122 614.710938 L 964.964844 573.066406 L 965.652344 570.445312 L 1122.6875 612.101562 L 1122 614.710938 " fill-opacity="1" fill-rule="nonzero"/><path fill="#918f8f" d="M 1120.894531 618.863281 L 963.859375 577.203125 L 964.558594 574.59375 L 1121.597656 616.253906 L 1120.894531 618.863281 " fill-opacity="1" fill-rule="nonzero"/><path fill="#918f8f" d="M 1119.792969 623.011719 L 962.769531 581.355469 L 963.457031 578.746094 L 1120.492188 620.390625 L 1119.792969 623.011719 " fill-opacity="1" fill-rule="nonzero"/><path fill="#918f8f" d="M 1118.699219 627.152344 L 961.664062 585.507812 L 962.355469 582.898438 L 1119.390625 624.542969 L 1118.699219 627.152344 " fill-opacity="1" fill-rule="nonzero"/><path fill="#918f8f" d="M 1071.761719 619.144531 L 960.5625 589.660156 L 961.25 587.039062 L 1072.449219 616.523438 L 1071.761719 619.144531 " fill-opacity="1" fill-rule="nonzero"/><path fill="#918f8f" d="M 1109.375 662.25 L 1009.375 635.726562 L 1010.0625 633.105469 L 1110.074219 659.628906 L 1109.375 662.25 " fill-opacity="1" fill-rule="nonzero"/><path fill="#918f8f" d="M 1108.128906 666.933594 L 1029.488281 646.082031 L 1030.1875 643.472656 L 1108.839844 664.324219 L 1108.128906 666.933594 " fill-opacity="1" fill-rule="nonzero"/><path fill="#b01419" d="M 1013.351562 411.871094 C 1013.351562 420.066406 1006.71875 426.71875 998.507812 426.71875 C 990.308594 426.71875 983.664062 420.066406 983.664062 411.871094 C 983.664062 403.675781 990.308594 397.03125 998.507812 397.03125 C 1006.71875 397.03125 1013.351562 403.675781 1013.351562 411.871094 " fill-opacity="1" fill-rule="nonzero"/><path fill="#ed1c24" d="M 1013.351562 411.871094 C 1013.351562 419.519531 1007.15625 425.722656 999.492188 425.722656 C 991.839844 425.722656 985.632812 419.519531 985.632812 411.871094 C 985.632812 404.21875 991.839844 398.015625 999.492188 398.015625 C 1007.15625 398.015625 1013.351562 404.21875 1013.351562 411.871094 " fill-opacity="1" fill-rule="nonzero"/><path fill="#ef2e32" d="M 992.277344 412.367188 C 992.277344 406.308594 997.058594 401.382812 1003.0625 401.125 C 1001.996094 400.78125 1000.855469 400.601562 999.667969 400.601562 C 993.453125 400.601562 988.398438 405.644531 988.398438 411.871094 C 988.398438 418.097656 993.453125 423.148438 999.667969 423.148438 L 1000.167969 423.125 C 995.601562 421.691406 992.277344 417.410156 992.277344 412.367188 " fill-opacity="1" fill-rule="nonzero"/><path fill="#314608" d="M 869.402344 113.796875 C 869.402344 121.992188 862.757812 128.632812 854.558594 128.632812 C 846.359375 128.632812 839.714844 121.992188 839.714844 113.796875 C 839.714844 105.601562 846.359375 98.957031 854.558594 98.957031 C 862.757812 98.957031 869.402344 105.601562 869.402344 113.796875 " fill-opacity="1" fill-rule="nonzero"/><path fill="#648f16" d="M 869.402344 113.796875 C 869.402344 121.445312 863.195312 127.648438 855.554688 127.648438 C 847.890625 127.648438 841.683594 121.445312 841.683594 113.796875 C 841.683594 106.144531 847.890625 99.941406 855.554688 99.941406 C 863.195312 99.941406 869.402344 106.144531 869.402344 113.796875 " fill-opacity="1" fill-rule="nonzero"/><path fill="#93d222" d="M 848.328125 114.292969 C 848.328125 108.234375 853.109375 103.296875 859.113281 103.039062 C 858.046875 102.707031 856.90625 102.527344 855.734375 102.527344 C 849.503906 102.527344 844.449219 107.570312 844.449219 113.796875 C 844.449219 120.023438 849.503906 125.0625 855.734375 125.0625 L 856.230469 125.050781 C 851.652344 123.605469 848.328125 119.335938 848.328125 114.292969 " fill-opacity="1" fill-rule="nonzero"/><path fill="#306487" d="M 640.902344 113.796875 C 640.902344 121.992188 634.246094 128.632812 626.046875 128.632812 C 617.847656 128.632812 611.203125 121.992188 611.203125 113.796875 C 611.203125 105.601562 617.847656 98.957031 626.046875 98.957031 C 634.246094 98.957031 640.902344 105.601562 640.902344 113.796875 " fill-opacity="1" fill-rule="nonzero"/><path fill="#51ade5" d="M 640.902344 113.796875 C 640.902344 121.457031 634.6875 127.648438 627.03125 127.648438 C 619.367188 127.648438 613.175781 121.457031 613.175781 113.796875 C 613.175781 106.144531 619.367188 99.941406 627.03125 99.941406 C 634.6875 99.941406 640.902344 106.144531 640.902344 113.796875 " fill-opacity="1" fill-rule="nonzero"/><path fill="#84bae8" d="M 619.820312 114.292969 C 619.820312 108.234375 624.601562 103.296875 630.59375 103.039062 C 629.535156 102.707031 628.398438 102.527344 627.210938 102.527344 C 620.980469 102.527344 615.9375 107.570312 615.9375 113.796875 C 615.9375 120.023438 620.980469 125.0625 627.210938 125.0625 L 627.707031 125.050781 C 623.128906 123.605469 619.820312 119.335938 619.820312 114.292969 " fill-opacity="1" fill-rule="nonzero"/></svg>