<svg xmlns="http://www.w3.org/2000/svg" xmlns:xlink="http://www.w3.org/1999/xlink" width="950" zoomAndPan="magnify" viewBox="0 0 712.5 707.999996" height="944" preserveAspectRatio="xMidYMid meet" version="1.0"><defs><g/><clipPath id="8ec2cc03f9"><path d="M 0 155.484375 L 712 155.484375 L 712 706.988281 L 0 706.988281 Z M 0 155.484375 " clip-rule="nonzero"/></clipPath><clipPath id="b0ec5b5c8f"><path d="M 26.96875 7.011719 L 685 7.011719 L 685 125.089844 L 26.96875 125.089844 Z M 26.96875 7.011719 " clip-rule="nonzero"/></clipPath><clipPath id="df20567353"><path d="M 65.191406 7.011719 L 646.753906 7.011719 C 656.890625 7.011719 666.613281 11.039062 673.78125 18.207031 C 680.949219 25.378906 684.976562 35.097656 684.976562 45.238281 L 684.976562 86.867188 C 684.976562 97.003906 680.949219 106.726562 673.78125 113.894531 C 666.613281 121.0625 656.890625 125.089844 646.753906 125.089844 L 65.191406 125.089844 C 55.054688 125.089844 45.332031 121.0625 38.164062 113.894531 C 30.996094 106.726562 26.96875 97.003906 26.96875 86.867188 L 26.96875 45.238281 C 26.96875 35.097656 30.996094 25.378906 38.164062 18.207031 C 45.332031 11.039062 55.054688 7.011719 65.191406 7.011719 Z M 65.191406 7.011719 " clip-rule="nonzero"/></clipPath></defs><g clip-path="url(#8ec2cc03f9)"><path fill="#351f17" d="M 712.128906 672.75 C 712.128906 691.710938 696.738281 707.089844 677.761719 707.089844 L 34.414062 707.089844 C 15.4375 707.089844 0.046875 691.710938 0.046875 672.75 L 0.046875 189.941406 C 0.046875 170.96875 15.4375 155.589844 34.414062 155.589844 L 677.761719 155.589844 C 696.738281 155.589844 712.128906 170.96875 712.128906 189.941406 L 712.128906 672.75 " fill-opacity="1" fill-rule="nonzero"/></g><path fill="#e68f4b" d="M 666.808594 642.019531 C 666.808594 658.574219 653.375 671.992188 636.816406 671.992188 L 75.359375 671.992188 C 58.800781 671.992188 45.367188 658.574219 45.367188 642.019531 L 45.367188 220.660156 C 45.367188 204.113281 58.800781 190.691406 75.359375 190.691406 L 636.816406 190.691406 C 653.375 190.691406 666.808594 204.113281 666.808594 220.660156 L 666.808594 642.019531 " fill-opacity="1" fill-rule="nonzero"/><path fill="#ffffff" d="M 404.175781 502.050781 L 192.0625 588.902344 L 81.710938 319.8125 L 293.824219 232.960938 L 404.175781 502.050781 " fill-opacity="1" fill-rule="nonzero"/><path fill="#918f8f" d="M 245.671875 281.75 L 150.28125 320.804688 L 147.84375 314.863281 L 243.238281 275.804688 L 245.671875 281.75 " fill-opacity="1" fill-rule="nonzero"/><path fill="#918f8f" d="M 218.757812 334.246094 L 123.378906 373.300781 L 122.148438 370.328125 L 217.542969 331.273438 L 218.757812 334.246094 " fill-opacity="1" fill-rule="nonzero"/><path fill="#918f8f" d="M 221.191406 340.164062 L 125.800781 379.222656 L 124.582031 376.25 L 219.96875 337.191406 L 221.191406 340.164062 " fill-opacity="1" fill-rule="nonzero"/><path fill="#918f8f" d="M 223.289062 345.292969 L 127.902344 384.359375 L 126.683594 381.378906 L 222.070312 342.320312 L 223.289062 345.292969 " fill-opacity="1" fill-rule="nonzero"/><path fill="#918f8f" d="M 308.558594 316.136719 L 129.933594 389.292969 L 128.703125 386.3125 L 307.347656 313.164062 L 308.558594 316.136719 " fill-opacity="1" fill-rule="nonzero"/><path fill="#918f8f" d="M 310.492188 320.855469 L 131.863281 394 L 130.644531 391.027344 L 309.277344 317.882812 L 310.492188 320.855469 " fill-opacity="1" fill-rule="nonzero"/><path fill="#918f8f" d="M 312.429688 325.570312 L 133.796875 398.71875 L 132.574219 395.746094 L 311.210938 322.597656 L 312.429688 325.570312 " fill-opacity="1" fill-rule="nonzero"/><path fill="#918f8f" d="M 314.363281 330.296875 L 135.734375 403.433594 L 134.515625 400.460938 L 313.152344 327.324219 L 314.363281 330.296875 " fill-opacity="1" fill-rule="nonzero"/><path fill="#918f8f" d="M 316.292969 335.003906 L 137.660156 408.148438 L 136.445312 405.179688 L 315.082031 332.03125 L 316.292969 335.003906 " fill-opacity="1" fill-rule="nonzero"/><path fill="#918f8f" d="M 318.234375 339.71875 L 139.605469 412.867188 L 138.378906 409.894531 L 317.015625 336.75 L 318.234375 339.71875 " fill-opacity="1" fill-rule="nonzero"/><path fill="#918f8f" d="M 320.164062 344.445312 L 141.53125 417.582031 L 140.316406 414.617188 L 318.945312 341.472656 L 320.164062 344.445312 " fill-opacity="1" fill-rule="nonzero"/><path fill="#918f8f" d="M 322.105469 349.160156 L 143.46875 422.300781 L 142.25 419.328125 L 320.886719 346.1875 L 322.105469 349.160156 " fill-opacity="1" fill-rule="nonzero"/><path fill="#918f8f" d="M 324.039062 353.871094 L 145.394531 427.015625 L 144.1875 424.042969 L 322.816406 350.898438 L 324.039062 353.871094 " fill-opacity="1" fill-rule="nonzero"/><path fill="#918f8f" d="M 325.96875 358.59375 L 147.332031 431.730469 L 146.121094 428.761719 L 324.75 355.621094 L 325.96875 358.59375 " fill-opacity="1" fill-rule="nonzero"/><path fill="#918f8f" d="M 275.769531 384.65625 L 149.273438 436.457031 L 148.050781 433.484375 L 274.550781 381.683594 L 275.769531 384.65625 " fill-opacity="1" fill-rule="nonzero"/><path fill="#918f8f" d="M 330.011719 368.449219 L 151.375 441.59375 L 150.152344 438.621094 L 328.789062 365.476562 L 330.011719 368.449219 " fill-opacity="1" fill-rule="nonzero"/><path fill="#918f8f" d="M 331.941406 373.164062 L 153.3125 446.308594 L 152.09375 443.335938 L 330.730469 370.191406 L 331.941406 373.164062 " fill-opacity="1" fill-rule="nonzero"/><path fill="#918f8f" d="M 333.882812 377.871094 L 155.246094 451.019531 L 154.023438 448.054688 L 332.660156 374.910156 L 333.882812 377.871094 " fill-opacity="1" fill-rule="nonzero"/><path fill="#918f8f" d="M 335.820312 382.597656 L 157.175781 455.742188 L 155.964844 452.769531 L 334.601562 379.625 L 335.820312 382.597656 " fill-opacity="1" fill-rule="nonzero"/><path fill="#918f8f" d="M 337.746094 387.3125 L 159.117188 460.460938 L 157.898438 457.488281 L 336.53125 384.339844 L 337.746094 387.3125 " fill-opacity="1" fill-rule="nonzero"/><path fill="#918f8f" d="M 339.683594 392.03125 L 161.046875 465.175781 L 159.828125 462.203125 L 338.464844 389.058594 L 339.683594 392.03125 " fill-opacity="1" fill-rule="nonzero"/><path fill="#918f8f" d="M 341.617188 396.746094 L 162.980469 469.890625 L 161.761719 466.921875 L 340.394531 393.773438 L 341.617188 396.746094 " fill-opacity="1" fill-rule="nonzero"/><path fill="#918f8f" d="M 343.546875 401.460938 L 164.921875 474.609375 L 163.691406 471.636719 L 342.335938 398.492188 L 343.546875 401.460938 " fill-opacity="1" fill-rule="nonzero"/><path fill="#918f8f" d="M 345.488281 406.179688 L 166.851562 479.324219 L 165.632812 476.351562 L 344.265625 403.207031 L 345.488281 406.179688 " fill-opacity="1" fill-rule="nonzero"/><path fill="#918f8f" d="M 347.417969 410.894531 L 168.785156 484.042969 L 167.5625 481.070312 L 346.207031 407.921875 L 347.417969 410.894531 " fill-opacity="1" fill-rule="nonzero"/><path fill="#918f8f" d="M 297.210938 436.964844 L 170.722656 488.757812 L 169.503906 485.785156 L 296 433.992188 L 297.210938 436.964844 " fill-opacity="1" fill-rule="nonzero"/><path fill="#918f8f" d="M 353.472656 425.660156 L 174.84375 498.804688 L 173.617188 495.832031 L 352.253906 422.6875 L 353.472656 425.660156 " fill-opacity="1" fill-rule="nonzero"/><path fill="#918f8f" d="M 355.40625 430.375 L 176.777344 503.519531 L 175.554688 500.550781 L 354.191406 427.402344 L 355.40625 430.375 " fill-opacity="1" fill-rule="nonzero"/><path fill="#918f8f" d="M 357.34375 435.09375 L 178.699219 508.230469 L 177.488281 505.257812 L 356.125 432.121094 L 357.34375 435.09375 " fill-opacity="1" fill-rule="nonzero"/><path fill="#918f8f" d="M 359.277344 439.808594 L 180.640625 512.953125 L 179.429688 509.980469 L 358.054688 436.835938 L 359.277344 439.808594 " fill-opacity="1" fill-rule="nonzero"/><path fill="#918f8f" d="M 309.070312 465.871094 L 182.570312 517.664062 L 181.359375 514.699219 L 307.855469 462.898438 L 309.070312 465.871094 " fill-opacity="1" fill-rule="nonzero"/><path fill="#918f8f" d="M 375.636719 479.710938 L 261.882812 526.289062 L 260.664062 523.316406 L 374.421875 476.742188 L 375.636719 479.710938 " fill-opacity="1" fill-rule="nonzero"/><path fill="#918f8f" d="M 377.824219 485.050781 L 288.363281 521.675781 L 287.140625 518.703125 L 376.613281 482.078125 L 377.824219 485.050781 " fill-opacity="1" fill-rule="nonzero"/><path fill="#ffffff" d="M 553.117188 526.714844 L 323.917969 523.679688 L 327.761719 232.90625 L 556.980469 235.941406 L 553.117188 526.714844 " fill-opacity="1" fill-rule="nonzero"/><path fill="#918f8f" d="M 493.546875 262.003906 L 390.472656 260.628906 L 390.554688 254.21875 L 493.644531 255.582031 L 493.546875 262.003906 " fill-opacity="1" fill-rule="nonzero"/><path fill="#918f8f" d="M 448.230469 299.785156 L 345.148438 298.410156 L 345.1875 295.203125 L 448.269531 296.570312 L 448.230469 299.785156 " fill-opacity="1" fill-rule="nonzero"/><path fill="#918f8f" d="M 448.148438 306.179688 L 345.066406 304.816406 L 345.109375 301.609375 L 448.191406 302.964844 L 448.148438 306.179688 " fill-opacity="1" fill-rule="nonzero"/><path fill="#918f8f" d="M 448.070312 311.71875 L 344.996094 310.355469 L 345.035156 307.148438 L 448.109375 308.515625 L 448.070312 311.71875 " fill-opacity="1" fill-rule="nonzero"/><path fill="#918f8f" d="M 537.953125 318.246094 L 344.921875 315.695312 L 344.960938 312.480469 L 538 315.03125 L 537.953125 318.246094 " fill-opacity="1" fill-rule="nonzero"/><path fill="#918f8f" d="M 537.886719 323.34375 L 344.859375 320.78125 L 344.898438 317.574219 L 537.929688 320.128906 L 537.886719 323.34375 " fill-opacity="1" fill-rule="nonzero"/><path fill="#918f8f" d="M 537.824219 328.4375 L 344.785156 325.886719 L 344.824219 322.671875 L 537.855469 325.230469 L 537.824219 328.4375 " fill-opacity="1" fill-rule="nonzero"/><path fill="#918f8f" d="M 537.75 333.542969 L 344.71875 330.972656 L 344.753906 327.757812 L 537.792969 330.328125 L 537.75 333.542969 " fill-opacity="1" fill-rule="nonzero"/><path fill="#918f8f" d="M 537.6875 338.628906 L 344.648438 336.078125 L 344.695312 332.863281 L 537.734375 335.414062 L 537.6875 338.628906 " fill-opacity="1" fill-rule="nonzero"/><path fill="#918f8f" d="M 537.613281 343.734375 L 344.582031 341.175781 L 344.632812 337.96875 L 537.660156 340.519531 L 537.613281 343.734375 " fill-opacity="1" fill-rule="nonzero"/><path fill="#918f8f" d="M 537.546875 348.832031 L 344.519531 346.269531 L 344.558594 343.054688 L 537.589844 345.617188 L 537.546875 348.832031 " fill-opacity="1" fill-rule="nonzero"/><path fill="#918f8f" d="M 537.484375 353.925781 L 344.453125 351.367188 L 344.484375 348.152344 L 537.523438 350.710938 L 537.484375 353.925781 " fill-opacity="1" fill-rule="nonzero"/><path fill="#918f8f" d="M 537.410156 359.023438 L 344.371094 356.460938 L 344.421875 353.257812 L 537.460938 355.808594 L 537.410156 359.023438 " fill-opacity="1" fill-rule="nonzero"/><path fill="#918f8f" d="M 537.347656 364.117188 L 344.308594 361.566406 L 344.355469 358.351562 L 537.386719 360.914062 L 537.347656 364.117188 " fill-opacity="1" fill-rule="nonzero"/><path fill="#918f8f" d="M 480.933594 368.472656 L 344.25 366.65625 L 344.292969 363.441406 L 480.980469 365.257812 L 480.933594 368.472656 " fill-opacity="1" fill-rule="nonzero"/><path fill="#918f8f" d="M 537.210938 374.761719 L 344.171875 372.210938 L 344.210938 368.996094 L 537.25 371.558594 L 537.210938 374.761719 " fill-opacity="1" fill-rule="nonzero"/><path fill="#918f8f" d="M 537.136719 379.859375 L 344.105469 377.308594 L 344.144531 374.09375 L 537.175781 376.652344 L 537.136719 379.859375 " fill-opacity="1" fill-rule="nonzero"/><path fill="#918f8f" d="M 537.070312 384.953125 L 344.03125 382.402344 L 344.082031 379.195312 L 537.113281 381.75 L 537.070312 384.953125 " fill-opacity="1" fill-rule="nonzero"/><path fill="#918f8f" d="M 537 390.058594 L 343.96875 387.5 L 344.007812 384.285156 L 537.046875 386.84375 L 537 390.058594 " fill-opacity="1" fill-rule="nonzero"/><path fill="#918f8f" d="M 536.933594 395.15625 L 343.902344 392.59375 L 343.945312 389.390625 L 536.976562 391.941406 L 536.933594 395.15625 " fill-opacity="1" fill-rule="nonzero"/><path fill="#918f8f" d="M 536.871094 400.25 L 343.832031 397.699219 L 343.871094 394.484375 L 536.910156 397.046875 L 536.871094 400.25 " fill-opacity="1" fill-rule="nonzero"/><path fill="#918f8f" d="M 536.796875 405.347656 L 343.765625 402.789062 L 343.808594 399.582031 L 536.835938 402.140625 L 536.796875 405.347656 " fill-opacity="1" fill-rule="nonzero"/><path fill="#918f8f" d="M 536.722656 410.445312 L 343.695312 407.882812 L 343.742188 404.675781 L 536.773438 407.238281 L 536.722656 410.445312 " fill-opacity="1" fill-rule="nonzero"/><path fill="#918f8f" d="M 536.660156 415.539062 L 343.621094 412.988281 L 343.675781 409.773438 L 536.707031 412.332031 L 536.660156 415.539062 " fill-opacity="1" fill-rule="nonzero"/><path fill="#918f8f" d="M 536.601562 420.644531 L 343.554688 418.082031 L 343.605469 414.871094 L 536.636719 417.429688 L 536.601562 420.644531 " fill-opacity="1" fill-rule="nonzero"/><path fill="#918f8f" d="M 480.179688 424.988281 L 343.5 423.179688 L 343.53125 419.964844 L 480.230469 421.78125 L 480.179688 424.988281 " fill-opacity="1" fill-rule="nonzero"/><path fill="#918f8f" d="M 536.386719 436.585938 L 343.355469 434.027344 L 343.394531 430.820312 L 536.425781 433.378906 L 536.386719 436.585938 " fill-opacity="1" fill-rule="nonzero"/><path fill="#918f8f" d="M 536.320312 441.691406 L 343.28125 439.128906 L 343.328125 435.921875 L 536.359375 438.476562 L 536.320312 441.691406 " fill-opacity="1" fill-rule="nonzero"/><path fill="#918f8f" d="M 536.253906 446.785156 L 343.21875 444.226562 L 343.257812 441.011719 L 536.289062 443.578125 L 536.253906 446.785156 " fill-opacity="1" fill-rule="nonzero"/><path fill="#918f8f" d="M 536.183594 451.875 L 343.152344 449.320312 L 343.183594 446.109375 L 536.222656 448.667969 L 536.183594 451.875 " fill-opacity="1" fill-rule="nonzero"/><path fill="#918f8f" d="M 479.777344 456.226562 L 343.078125 454.417969 L 343.121094 451.210938 L 479.816406 453.019531 L 479.777344 456.226562 " fill-opacity="1" fill-rule="nonzero"/><path fill="#918f8f" d="M 535.609375 495 L 412.675781 493.371094 L 412.726562 490.164062 L 535.648438 491.785156 L 535.609375 495 " fill-opacity="1" fill-rule="nonzero"/><path fill="#918f8f" d="M 535.535156 500.765625 L 438.855469 499.492188 L 438.894531 496.277344 L 535.578125 497.554688 L 535.535156 500.765625 " fill-opacity="1" fill-rule="nonzero"/><path fill="#ffffff" d="M 626.519531 626.472656 L 499.496094 592.804688 L 542.285156 431.667969 L 669.289062 465.335938 L 626.519531 626.472656 " fill-opacity="1" fill-rule="nonzero"/><path fill="#918f8f" d="M 630.398438 470.984375 L 573.265625 455.832031 L 574.21875 452.277344 L 631.335938 467.421875 L 630.398438 470.984375 " fill-opacity="1" fill-rule="nonzero"/><path fill="#918f8f" d="M 599.914062 485.65625 L 542.792969 470.515625 L 543.261719 468.738281 L 600.390625 483.878906 L 599.914062 485.65625 " fill-opacity="1" fill-rule="nonzero"/><path fill="#918f8f" d="M 598.964844 489.203125 L 541.847656 474.058594 L 542.316406 472.28125 L 599.453125 487.425781 L 598.964844 489.203125 " fill-opacity="1" fill-rule="nonzero"/><path fill="#918f8f" d="M 598.148438 492.28125 L 541.03125 477.136719 L 541.507812 475.351562 L 598.628906 490.496094 L 598.148438 492.28125 " fill-opacity="1" fill-rule="nonzero"/><path fill="#918f8f" d="M 647.21875 508.449219 L 540.25 480.09375 L 540.71875 478.308594 L 647.695312 506.664062 L 647.21875 508.449219 " fill-opacity="1" fill-rule="nonzero"/><path fill="#918f8f" d="M 646.464844 511.265625 L 539.496094 482.910156 L 539.972656 481.125 L 646.941406 509.488281 L 646.464844 511.265625 " fill-opacity="1" fill-rule="nonzero"/><path fill="#918f8f" d="M 645.714844 514.09375 L 538.753906 485.738281 L 539.222656 483.953125 L 646.191406 512.316406 L 645.714844 514.09375 " fill-opacity="1" fill-rule="nonzero"/><path fill="#918f8f" d="M 644.972656 516.917969 L 538 488.554688 L 538.46875 486.78125 L 645.441406 515.144531 L 644.972656 516.917969 " fill-opacity="1" fill-rule="nonzero"/><path fill="#918f8f" d="M 644.21875 519.738281 L 537.25 491.382812 L 537.726562 489.605469 L 644.695312 517.960938 L 644.21875 519.738281 " fill-opacity="1" fill-rule="nonzero"/><path fill="#918f8f" d="M 643.46875 522.566406 L 536.507812 494.210938 L 536.976562 492.433594 L 643.9375 520.789062 L 643.46875 522.566406 " fill-opacity="1" fill-rule="nonzero"/><path fill="#918f8f" d="M 642.714844 525.390625 L 535.753906 497.027344 L 536.222656 495.257812 L 643.191406 523.613281 L 642.714844 525.390625 " fill-opacity="1" fill-rule="nonzero"/><path fill="#918f8f" d="M 641.972656 528.21875 L 535.003906 499.863281 L 535.472656 498.078125 L 642.441406 526.433594 L 641.972656 528.21875 " fill-opacity="1" fill-rule="nonzero"/><path fill="#918f8f" d="M 641.222656 531.035156 L 534.25 502.679688 L 534.71875 500.90625 L 641.691406 529.261719 L 641.222656 531.035156 " fill-opacity="1" fill-rule="nonzero"/><path fill="#918f8f" d="M 640.46875 533.863281 L 533.5 505.507812 L 533.96875 503.722656 L 640.945312 532.085938 L 640.46875 533.863281 " fill-opacity="1" fill-rule="nonzero"/><path fill="#918f8f" d="M 608.496094 528.414062 L 532.757812 508.335938 L 533.226562 506.558594 L 608.964844 526.636719 L 608.496094 528.414062 " fill-opacity="1" fill-rule="nonzero"/><path fill="#918f8f" d="M 638.902344 539.757812 L 531.941406 511.402344 L 532.410156 509.625 L 639.378906 537.992188 L 638.902344 539.757812 " fill-opacity="1" fill-rule="nonzero"/><path fill="#918f8f" d="M 638.15625 542.59375 L 531.1875 514.230469 L 531.65625 512.453125 L 638.625 540.808594 L 638.15625 542.59375 " fill-opacity="1" fill-rule="nonzero"/><path fill="#918f8f" d="M 637.40625 545.414062 L 530.429688 517.058594 L 530.914062 515.28125 L 637.875 543.636719 L 637.40625 545.414062 " fill-opacity="1" fill-rule="nonzero"/><path fill="#918f8f" d="M 636.65625 548.238281 L 529.683594 519.882812 L 530.160156 518.097656 L 637.132812 546.460938 L 636.65625 548.238281 " fill-opacity="1" fill-rule="nonzero"/><path fill="#918f8f" d="M 635.902344 551.066406 L 528.941406 522.703125 L 529.410156 520.925781 L 636.378906 549.289062 L 635.902344 551.066406 " fill-opacity="1" fill-rule="nonzero"/><path fill="#918f8f" d="M 635.160156 553.882812 L 528.179688 525.527344 L 528.65625 523.753906 L 635.628906 552.109375 L 635.160156 553.882812 " fill-opacity="1" fill-rule="nonzero"/><path fill="#918f8f" d="M 634.398438 556.710938 L 527.4375 528.355469 L 527.90625 526.578125 L 634.875 554.933594 L 634.398438 556.710938 " fill-opacity="1" fill-rule="nonzero"/><path fill="#918f8f" d="M 633.65625 559.539062 L 526.6875 531.183594 L 527.15625 529.398438 L 634.132812 557.761719 L 633.65625 559.539062 " fill-opacity="1" fill-rule="nonzero"/><path fill="#918f8f" d="M 632.902344 562.363281 L 525.933594 534.007812 L 526.402344 532.222656 L 633.382812 560.578125 L 632.902344 562.363281 " fill-opacity="1" fill-rule="nonzero"/><path fill="#918f8f" d="M 632.152344 565.183594 L 525.183594 536.828125 L 525.660156 535.050781 L 632.628906 563.40625 L 632.152344 565.183594 " fill-opacity="1" fill-rule="nonzero"/><path fill="#918f8f" d="M 600.179688 559.738281 L 524.4375 539.652344 L 524.898438 537.878906 L 600.65625 557.953125 L 600.179688 559.738281 " fill-opacity="1" fill-rule="nonzero"/><path fill="#918f8f" d="M 629.808594 574.027344 L 522.839844 545.671875 L 523.308594 543.886719 L 630.277344 572.25 L 629.808594 574.027344 " fill-opacity="1" fill-rule="nonzero"/><path fill="#918f8f" d="M 629.058594 576.851562 L 522.085938 548.488281 L 522.5625 546.710938 L 629.535156 575.078125 L 629.058594 576.851562 " fill-opacity="1" fill-rule="nonzero"/><path fill="#918f8f" d="M 628.304688 579.679688 L 521.34375 551.316406 L 521.8125 549.539062 L 628.78125 577.894531 L 628.304688 579.679688 " fill-opacity="1" fill-rule="nonzero"/><path fill="#918f8f" d="M 627.5625 582.5 L 520.59375 554.144531 L 521.0625 552.367188 L 628.03125 580.722656 L 627.5625 582.5 " fill-opacity="1" fill-rule="nonzero"/><path fill="#918f8f" d="M 595.589844 577.046875 L 519.839844 556.96875 L 520.308594 555.183594 L 596.058594 575.261719 L 595.589844 577.046875 " fill-opacity="1" fill-rule="nonzero"/><path fill="#918f8f" d="M 621.210938 606.394531 L 553.089844 588.335938 L 553.558594 586.550781 L 621.6875 604.609375 L 621.210938 606.394531 " fill-opacity="1" fill-rule="nonzero"/><path fill="#918f8f" d="M 620.359375 609.585938 L 566.789062 595.386719 L 567.265625 593.609375 L 620.84375 607.808594 L 620.359375 609.585938 " fill-opacity="1" fill-rule="nonzero"/><path fill="#b01419" d="M 555.796875 435.914062 C 555.796875 441.496094 551.28125 446.027344 545.6875 446.027344 C 540.101562 446.027344 535.578125 441.496094 535.578125 435.914062 C 535.578125 430.335938 540.101562 425.8125 545.6875 425.8125 C 551.28125 425.8125 555.796875 430.335938 555.796875 435.914062 " fill-opacity="1" fill-rule="nonzero"/><path fill="#ed1c24" d="M 555.796875 435.914062 C 555.796875 441.125 551.578125 445.347656 546.359375 445.347656 C 541.144531 445.347656 536.917969 441.125 536.917969 435.914062 C 536.917969 430.707031 541.144531 426.484375 546.359375 426.484375 C 551.578125 426.484375 555.796875 430.707031 555.796875 435.914062 " fill-opacity="1" fill-rule="nonzero"/><path fill="#ef2e32" d="M 541.445312 436.253906 C 541.445312 432.128906 544.703125 428.777344 548.792969 428.597656 C 548.0625 428.363281 547.289062 428.242188 546.480469 428.242188 C 542.246094 428.242188 538.800781 431.675781 538.800781 435.914062 C 538.800781 440.15625 542.246094 443.597656 546.480469 443.597656 L 546.820312 443.578125 C 543.707031 442.601562 541.445312 439.6875 541.445312 436.253906 " fill-opacity="1" fill-rule="nonzero"/><path fill="#314608" d="M 457.742188 232.960938 C 457.742188 238.542969 453.21875 243.066406 447.632812 243.066406 C 442.046875 243.066406 437.523438 238.542969 437.523438 232.960938 C 437.523438 227.378906 442.046875 222.859375 447.632812 222.859375 C 453.21875 222.859375 457.742188 227.378906 457.742188 232.960938 " fill-opacity="1" fill-rule="nonzero"/><path fill="#648f16" d="M 457.742188 232.960938 C 457.742188 238.171875 453.515625 242.394531 448.3125 242.394531 C 443.089844 242.394531 438.863281 238.171875 438.863281 232.960938 C 438.863281 227.753906 443.089844 223.527344 448.3125 223.527344 C 453.515625 223.527344 457.742188 227.753906 457.742188 232.960938 " fill-opacity="1" fill-rule="nonzero"/><path fill="#93d222" d="M 443.390625 233.300781 C 443.390625 229.171875 446.648438 225.8125 450.734375 225.636719 C 450.007812 225.410156 449.234375 225.289062 448.433594 225.289062 C 444.191406 225.289062 440.746094 228.722656 440.746094 232.960938 C 440.746094 237.203125 444.191406 240.632812 448.433594 240.632812 L 448.773438 240.625 C 445.652344 239.640625 443.390625 236.734375 443.390625 233.300781 " fill-opacity="1" fill-rule="nonzero"/><path fill="#306487" d="M 302.09375 232.960938 C 302.09375 238.542969 297.558594 243.066406 291.976562 243.066406 C 286.390625 243.066406 281.863281 238.542969 281.863281 232.960938 C 281.863281 227.378906 286.390625 222.859375 291.976562 222.859375 C 297.558594 222.859375 302.09375 227.378906 302.09375 232.960938 " fill-opacity="1" fill-rule="nonzero"/><path fill="#51ade5" d="M 302.09375 232.960938 C 302.09375 238.179688 297.859375 242.394531 292.644531 242.394531 C 287.425781 242.394531 283.207031 238.179688 283.207031 232.960938 C 283.207031 227.753906 287.425781 223.527344 292.644531 223.527344 C 297.859375 223.527344 302.09375 227.753906 302.09375 232.960938 " fill-opacity="1" fill-rule="nonzero"/><path fill="#84bae8" d="M 287.730469 233.300781 C 287.730469 229.171875 290.988281 225.8125 295.070312 225.636719 C 294.351562 225.410156 293.574219 225.289062 292.765625 225.289062 C 288.523438 225.289062 285.089844 228.722656 285.089844 232.960938 C 285.089844 237.203125 288.523438 240.632812 292.765625 240.632812 L 293.105469 240.625 C 289.988281 239.640625 287.730469 236.734375 287.730469 233.300781 " fill-opacity="1" fill-rule="nonzero"/><g clip-path="url(#b0ec5b5c8f)"><g clip-path="url(#df20567353)"><path fill="#808080" d="M 26.96875 7.011719 L 685.144531 7.011719 L 685.144531 125.089844 L 26.96875 125.089844 Z M 26.96875 7.011719 " fill-opacity="1" fill-rule="nonzero"/></g></g><g fill="#ffffff" fill-opacity="1"><g transform="translate(82.133945, 90.646532)"><g><path d="M 8.78125 0 C 8.195312 0 7.742188 -0.171875 7.421875 -0.515625 C 7.109375 -0.859375 6.953125 -1.300781 6.953125 -1.84375 L 6.953125 -53.96875 C 6.953125 -54.5625 7.109375 -55.03125 7.421875 -55.375 C 7.742188 -55.71875 8.195312 -55.890625 8.78125 -55.890625 L 26.90625 -55.890625 C 32.382812 -55.890625 36.800781 -55.0625 40.15625 -53.40625 C 43.507812 -51.757812 45.957031 -49.328125 47.5 -46.109375 C 49.050781 -42.890625 49.851562 -38.9375 49.90625 -34.25 C 49.957031 -31.851562 49.984375 -29.75 49.984375 -27.9375 C 49.984375 -26.132812 49.957031 -24.0625 49.90625 -21.71875 C 49.800781 -16.820312 48.988281 -12.757812 47.46875 -9.53125 C 45.945312 -6.3125 43.550781 -3.914062 40.28125 -2.34375 C 37.007812 -0.78125 32.6875 0 27.3125 0 Z M 14.765625 -6.78125 L 26.90625 -6.78125 C 30.582031 -6.78125 33.507812 -7.285156 35.6875 -8.296875 C 37.875 -9.316406 39.457031 -10.941406 40.4375 -13.171875 C 41.425781 -15.410156 41.945312 -18.363281 42 -22.03125 C 42.101562 -23.632812 42.15625 -25.035156 42.15625 -26.234375 C 42.15625 -27.429688 42.15625 -28.628906 42.15625 -29.828125 C 42.15625 -31.023438 42.101562 -32.394531 42 -33.9375 C 41.894531 -39.09375 40.671875 -42.910156 38.328125 -45.390625 C 35.984375 -47.867188 32.046875 -49.109375 26.515625 -49.109375 L 14.765625 -49.109375 Z M 14.765625 -6.78125 "/></g></g></g><g fill="#ffffff" fill-opacity="1"><g transform="translate(137.135507, 90.646532)"><g><path d="M 8.78125 0 C 8.195312 0 7.742188 -0.171875 7.421875 -0.515625 C 7.109375 -0.859375 6.953125 -1.300781 6.953125 -1.84375 L 6.953125 -53.96875 C 6.953125 -54.5625 7.109375 -55.03125 7.421875 -55.375 C 7.742188 -55.71875 8.195312 -55.890625 8.78125 -55.890625 L 41.765625 -55.890625 C 42.347656 -55.890625 42.796875 -55.71875 43.109375 -55.375 C 43.429688 -55.03125 43.59375 -54.5625 43.59375 -53.96875 L 43.59375 -50.9375 C 43.59375 -50.351562 43.429688 -49.898438 43.109375 -49.578125 C 42.796875 -49.265625 42.347656 -49.109375 41.765625 -49.109375 L 14.609375 -49.109375 L 14.609375 -31.625 L 40 -31.625 C 40.582031 -31.625 41.035156 -31.445312 41.359375 -31.09375 C 41.679688 -30.75 41.84375 -30.285156 41.84375 -29.703125 L 41.84375 -26.75 C 41.84375 -26.21875 41.679688 -25.773438 41.359375 -25.421875 C 41.035156 -25.078125 40.582031 -24.90625 40 -24.90625 L 14.609375 -24.90625 L 14.609375 -6.78125 L 42.390625 -6.78125 C 42.984375 -6.78125 43.4375 -6.617188 43.75 -6.296875 C 44.070312 -5.984375 44.234375 -5.535156 44.234375 -4.953125 L 44.234375 -1.84375 C 44.234375 -1.300781 44.070312 -0.859375 43.75 -0.515625 C 43.4375 -0.171875 42.984375 0 42.390625 0 Z M 8.78125 0 "/></g></g></g><g fill="#ffffff" fill-opacity="1"><g transform="translate(185.511335, 90.646532)"><g><path d="M 8.78125 0 C 8.195312 0 7.742188 -0.171875 7.421875 -0.515625 C 7.109375 -0.859375 6.953125 -1.300781 6.953125 -1.84375 L 6.953125 -53.96875 C 6.953125 -54.5625 7.109375 -55.03125 7.421875 -55.375 C 7.742188 -55.71875 8.195312 -55.890625 8.78125 -55.890625 L 29.0625 -55.890625 C 33 -55.890625 36.414062 -55.25 39.3125 -53.96875 C 42.21875 -52.695312 44.46875 -50.796875 46.0625 -48.265625 C 47.664062 -45.734375 48.46875 -42.578125 48.46875 -38.796875 C 48.46875 -35.023438 47.664062 -31.882812 46.0625 -29.375 C 44.46875 -26.875 42.21875 -24.984375 39.3125 -23.703125 C 36.414062 -22.429688 33 -21.796875 29.0625 -21.796875 L 14.9375 -21.796875 L 14.9375 -1.84375 C 14.9375 -1.300781 14.757812 -0.859375 14.40625 -0.515625 C 14.0625 -0.171875 13.597656 0 13.015625 0 Z M 14.84375 -28.5 L 28.65625 -28.5 C 32.601562 -28.5 35.5625 -29.378906 37.53125 -31.140625 C 39.5 -32.898438 40.484375 -35.453125 40.484375 -38.796875 C 40.484375 -42.097656 39.523438 -44.65625 37.609375 -46.46875 C 35.691406 -48.28125 32.707031 -49.1875 28.65625 -49.1875 L 14.84375 -49.1875 Z M 14.84375 -28.5 "/></g></g></g><g fill="#ffffff" fill-opacity="1"><g transform="translate(236.760977, 90.646532)"><g><path d="M 27.0625 0.796875 C 22.488281 0.796875 18.578125 0.015625 15.328125 -1.546875 C 12.078125 -3.117188 9.570312 -5.539062 7.8125 -8.8125 C 6.0625 -12.09375 5.082031 -16.207031 4.875 -21.15625 C 4.820312 -23.5 4.796875 -25.75 4.796875 -27.90625 C 4.796875 -30.0625 4.820312 -32.3125 4.875 -34.65625 C 5.082031 -39.550781 6.101562 -43.632812 7.9375 -46.90625 C 9.78125 -50.175781 12.335938 -52.625 15.609375 -54.25 C 18.878906 -55.875 22.695312 -56.6875 27.0625 -56.6875 C 31.375 -56.6875 35.164062 -55.875 38.4375 -54.25 C 41.71875 -52.625 44.285156 -50.175781 46.140625 -46.90625 C 48.003906 -43.632812 49.019531 -39.550781 49.1875 -34.65625 C 49.289062 -32.3125 49.34375 -30.0625 49.34375 -27.90625 C 49.34375 -25.75 49.289062 -23.5 49.1875 -21.15625 C 49.019531 -16.207031 48.046875 -12.09375 46.265625 -8.8125 C 44.484375 -5.539062 41.96875 -3.117188 38.71875 -1.546875 C 35.476562 0.015625 31.59375 0.796875 27.0625 0.796875 Z M 27.0625 -5.984375 C 31.113281 -5.984375 34.425781 -7.207031 37 -9.65625 C 39.582031 -12.101562 40.984375 -16.070312 41.203125 -21.5625 C 41.304688 -23.957031 41.359375 -26.097656 41.359375 -27.984375 C 41.359375 -29.867188 41.304688 -31.984375 41.203125 -34.328125 C 41.097656 -38.003906 40.414062 -40.984375 39.15625 -43.265625 C 37.90625 -45.554688 36.242188 -47.234375 34.171875 -48.296875 C 32.097656 -49.367188 29.726562 -49.90625 27.0625 -49.90625 C 24.40625 -49.90625 22.035156 -49.367188 19.953125 -48.296875 C 17.878906 -47.234375 16.21875 -45.554688 14.96875 -43.265625 C 13.71875 -40.984375 13.015625 -38.003906 12.859375 -34.328125 C 12.804688 -31.984375 12.78125 -29.867188 12.78125 -27.984375 C 12.78125 -26.097656 12.804688 -23.957031 12.859375 -21.5625 C 13.066406 -16.070312 14.472656 -12.101562 17.078125 -9.65625 C 19.691406 -7.207031 23.019531 -5.984375 27.0625 -5.984375 Z M 27.0625 -5.984375 "/></g></g></g><g fill="#ffffff" fill-opacity="1"><g transform="translate(290.804589, 90.646532)"><g><path d="M 8.78125 0 C 8.195312 0 7.742188 -0.171875 7.421875 -0.515625 C 7.109375 -0.859375 6.953125 -1.300781 6.953125 -1.84375 L 6.953125 -54.046875 C 6.953125 -54.585938 7.109375 -55.03125 7.421875 -55.375 C 7.742188 -55.71875 8.195312 -55.890625 8.78125 -55.890625 L 13.015625 -55.890625 C 13.597656 -55.890625 14.046875 -55.71875 14.359375 -55.375 C 14.679688 -55.03125 14.84375 -54.585938 14.84375 -54.046875 L 14.84375 -1.84375 C 14.84375 -1.300781 14.679688 -0.859375 14.359375 -0.515625 C 14.046875 -0.171875 13.597656 0 13.015625 0 Z M 8.78125 0 "/></g></g></g><g fill="#ffffff" fill-opacity="1"><g transform="translate(312.597661, 90.646532)"><g><path d="M 8.78125 0 C 8.25 0 7.8125 -0.171875 7.46875 -0.515625 C 7.125 -0.859375 6.953125 -1.300781 6.953125 -1.84375 L 6.953125 -53.96875 C 6.953125 -54.5625 7.125 -55.03125 7.46875 -55.375 C 7.8125 -55.71875 8.25 -55.890625 8.78125 -55.890625 L 12.78125 -55.890625 C 13.414062 -55.890625 13.890625 -55.726562 14.203125 -55.40625 C 14.523438 -55.09375 14.738281 -54.828125 14.84375 -54.609375 L 31.703125 -22.359375 L 48.703125 -54.609375 C 48.804688 -54.828125 49.003906 -55.09375 49.296875 -55.40625 C 49.597656 -55.726562 50.066406 -55.890625 50.703125 -55.890625 L 54.609375 -55.890625 C 55.191406 -55.890625 55.65625 -55.71875 56 -55.375 C 56.351562 -55.03125 56.53125 -54.5625 56.53125 -53.96875 L 56.53125 -1.84375 C 56.53125 -1.300781 56.351562 -0.859375 56 -0.515625 C 55.65625 -0.171875 55.191406 0 54.609375 0 L 50.703125 0 C 50.171875 0 49.726562 -0.171875 49.375 -0.515625 C 49.03125 -0.859375 48.859375 -1.300781 48.859375 -1.84375 L 48.859375 -41.125 L 35.53125 -15.09375 C 35.320312 -14.5625 35.003906 -14.144531 34.578125 -13.84375 C 34.148438 -13.550781 33.613281 -13.40625 32.96875 -13.40625 L 30.5 -13.40625 C 29.8125 -13.40625 29.28125 -13.550781 28.90625 -13.84375 C 28.53125 -14.144531 28.210938 -14.5625 27.953125 -15.09375 L 14.53125 -41.125 L 14.53125 -1.84375 C 14.53125 -1.300781 14.359375 -0.859375 14.015625 -0.515625 C 13.671875 -0.171875 13.226562 0 12.6875 0 Z M 8.78125 0 "/></g></g></g><g fill="#ffffff" fill-opacity="1"><g transform="translate(375.981167, 90.646532)"><g><path d="M 8.78125 0 C 8.195312 0 7.742188 -0.171875 7.421875 -0.515625 C 7.109375 -0.859375 6.953125 -1.300781 6.953125 -1.84375 L 6.953125 -53.96875 C 6.953125 -54.5625 7.109375 -55.03125 7.421875 -55.375 C 7.742188 -55.71875 8.195312 -55.890625 8.78125 -55.890625 L 41.765625 -55.890625 C 42.347656 -55.890625 42.796875 -55.71875 43.109375 -55.375 C 43.429688 -55.03125 43.59375 -54.5625 43.59375 -53.96875 L 43.59375 -50.9375 C 43.59375 -50.351562 43.429688 -49.898438 43.109375 -49.578125 C 42.796875 -49.265625 42.347656 -49.109375 41.765625 -49.109375 L 14.609375 -49.109375 L 14.609375 -31.625 L 40 -31.625 C 40.582031 -31.625 41.035156 -31.445312 41.359375 -31.09375 C 41.679688 -30.75 41.84375 -30.285156 41.84375 -29.703125 L 41.84375 -26.75 C 41.84375 -26.21875 41.679688 -25.773438 41.359375 -25.421875 C 41.035156 -25.078125 40.582031 -24.90625 40 -24.90625 L 14.609375 -24.90625 L 14.609375 -6.78125 L 42.390625 -6.78125 C 42.984375 -6.78125 43.4375 -6.617188 43.75 -6.296875 C 44.070312 -5.984375 44.234375 -5.535156 44.234375 -4.953125 L 44.234375 -1.84375 C 44.234375 -1.300781 44.070312 -0.859375 43.75 -0.515625 C 43.4375 -0.171875 42.984375 0 42.390625 0 Z M 8.78125 0 "/></g></g></g><g fill="#ffffff" fill-opacity="1"><g transform="translate(424.356995, 90.646532)"><g><path d="M 8.78125 0 C 8.195312 0 7.742188 -0.171875 7.421875 -0.515625 C 7.109375 -0.859375 6.953125 -1.300781 6.953125 -1.84375 L 6.953125 -53.96875 C 6.953125 -54.5625 7.109375 -55.03125 7.421875 -55.375 C 7.742188 -55.71875 8.195312 -55.890625 8.78125 -55.890625 L 12.453125 -55.890625 C 13.085938 -55.890625 13.566406 -55.742188 13.890625 -55.453125 C 14.210938 -55.160156 14.398438 -54.929688 14.453125 -54.765625 L 40.953125 -14.046875 L 40.953125 -53.96875 C 40.953125 -54.5625 41.113281 -55.03125 41.4375 -55.375 C 41.757812 -55.71875 42.210938 -55.890625 42.796875 -55.890625 L 46.625 -55.890625 C 47.207031 -55.890625 47.671875 -55.71875 48.015625 -55.375 C 48.367188 -55.03125 48.546875 -54.5625 48.546875 -53.96875 L 48.546875 -1.921875 C 48.546875 -1.390625 48.367188 -0.9375 48.015625 -0.5625 C 47.671875 -0.1875 47.234375 0 46.703125 0 L 42.875 0 C 42.289062 0 41.851562 -0.15625 41.5625 -0.46875 C 41.269531 -0.789062 41.066406 -1.007812 40.953125 -1.125 L 14.53125 -41.4375 L 14.53125 -1.84375 C 14.53125 -1.300781 14.359375 -0.859375 14.015625 -0.515625 C 13.671875 -0.171875 13.203125 0 12.609375 0 Z M 8.78125 0 "/></g></g></g><g fill="#ffffff" fill-opacity="1"><g transform="translate(479.837531, 90.646532)"><g><path d="M 21 0 C 20.46875 0 20.023438 -0.171875 19.671875 -0.515625 C 19.328125 -0.859375 19.15625 -1.300781 19.15625 -1.84375 L 19.15625 -48.78125 L 3.828125 -48.78125 C 3.296875 -48.78125 2.859375 -48.953125 2.515625 -49.296875 C 2.171875 -49.648438 2 -50.09375 2 -50.625 L 2 -53.96875 C 2 -54.5625 2.171875 -55.03125 2.515625 -55.375 C 2.859375 -55.71875 3.296875 -55.890625 3.828125 -55.890625 L 42.3125 -55.890625 C 42.90625 -55.890625 43.375 -55.71875 43.71875 -55.375 C 44.0625 -55.03125 44.234375 -54.5625 44.234375 -53.96875 L 44.234375 -50.625 C 44.234375 -50.09375 44.0625 -49.648438 43.71875 -49.296875 C 43.375 -48.953125 42.90625 -48.78125 42.3125 -48.78125 L 27.0625 -48.78125 L 27.0625 -1.84375 C 27.0625 -1.300781 26.890625 -0.859375 26.546875 -0.515625 C 26.203125 -0.171875 25.738281 0 25.15625 0 Z M 21 0 "/></g></g></g><g fill="#ffffff" fill-opacity="1"><g transform="translate(526.057988, 90.646532)"><g><path d="M 27.0625 0.796875 C 22.488281 0.796875 18.578125 0.015625 15.328125 -1.546875 C 12.078125 -3.117188 9.570312 -5.539062 7.8125 -8.8125 C 6.0625 -12.09375 5.082031 -16.207031 4.875 -21.15625 C 4.820312 -23.5 4.796875 -25.75 4.796875 -27.90625 C 4.796875 -30.0625 4.820312 -32.3125 4.875 -34.65625 C 5.082031 -39.550781 6.101562 -43.632812 7.9375 -46.90625 C 9.78125 -50.175781 12.335938 -52.625 15.609375 -54.25 C 18.878906 -55.875 22.695312 -56.6875 27.0625 -56.6875 C 31.375 -56.6875 35.164062 -55.875 38.4375 -54.25 C 41.71875 -52.625 44.285156 -50.175781 46.140625 -46.90625 C 48.003906 -43.632812 49.019531 -39.550781 49.1875 -34.65625 C 49.289062 -32.3125 49.34375 -30.0625 49.34375 -27.90625 C 49.34375 -25.75 49.289062 -23.5 49.1875 -21.15625 C 49.019531 -16.207031 48.046875 -12.09375 46.265625 -8.8125 C 44.484375 -5.539062 41.96875 -3.117188 38.71875 -1.546875 C 35.476562 0.015625 31.59375 0.796875 27.0625 0.796875 Z M 27.0625 -5.984375 C 31.113281 -5.984375 34.425781 -7.207031 37 -9.65625 C 39.582031 -12.101562 40.984375 -16.070312 41.203125 -21.5625 C 41.304688 -23.957031 41.359375 -26.097656 41.359375 -27.984375 C 41.359375 -29.867188 41.304688 -31.984375 41.203125 -34.328125 C 41.097656 -38.003906 40.414062 -40.984375 39.15625 -43.265625 C 37.90625 -45.554688 36.242188 -47.234375 34.171875 -48.296875 C 32.097656 -49.367188 29.726562 -49.90625 27.0625 -49.90625 C 24.40625 -49.90625 22.035156 -49.367188 19.953125 -48.296875 C 17.878906 -47.234375 16.21875 -45.554688 14.96875 -43.265625 C 13.71875 -40.984375 13.015625 -38.003906 12.859375 -34.328125 C 12.804688 -31.984375 12.78125 -29.867188 12.78125 -27.984375 C 12.78125 -26.097656 12.804688 -23.957031 12.859375 -21.5625 C 13.066406 -16.070312 14.472656 -12.101562 17.078125 -9.65625 C 19.691406 -7.207031 23.019531 -5.984375 27.0625 -5.984375 Z M 27.0625 -5.984375 "/></g></g></g><g fill="#ffffff" fill-opacity="1"><g transform="translate(580.1016, 90.646532)"><g><path d="M 24.90625 0.796875 C 20.28125 0.796875 16.394531 0.078125 13.25 -1.359375 C 10.113281 -2.796875 7.707031 -4.644531 6.03125 -6.90625 C 4.351562 -9.164062 3.460938 -11.546875 3.359375 -14.046875 C 3.359375 -14.472656 3.53125 -14.859375 3.875 -15.203125 C 4.21875 -15.554688 4.628906 -15.734375 5.109375 -15.734375 L 9.1875 -15.734375 C 9.820312 -15.734375 10.296875 -15.570312 10.609375 -15.25 C 10.929688 -14.925781 11.148438 -14.550781 11.265625 -14.125 C 11.578125 -12.851562 12.238281 -11.59375 13.25 -10.34375 C 14.257812 -9.09375 15.707031 -8.050781 17.59375 -7.21875 C 19.488281 -6.394531 21.925781 -5.984375 24.90625 -5.984375 C 29.488281 -5.984375 32.859375 -6.796875 35.015625 -8.421875 C 37.171875 -10.046875 38.25 -12.21875 38.25 -14.9375 C 38.25 -16.789062 37.675781 -18.289062 36.53125 -19.4375 C 35.382812 -20.582031 33.640625 -21.609375 31.296875 -22.515625 C 28.953125 -23.421875 25.921875 -24.40625 22.203125 -25.46875 C 18.316406 -26.582031 15.09375 -27.804688 12.53125 -29.140625 C 9.976562 -30.472656 8.078125 -32.125 6.828125 -34.09375 C 5.578125 -36.0625 4.953125 -38.5625 4.953125 -41.59375 C 4.953125 -44.46875 5.722656 -47.035156 7.265625 -49.296875 C 8.804688 -51.566406 11.039062 -53.363281 13.96875 -54.6875 C 16.894531 -56.019531 20.410156 -56.6875 24.515625 -56.6875 C 27.816406 -56.6875 30.703125 -56.242188 33.171875 -55.359375 C 35.648438 -54.484375 37.710938 -53.3125 39.359375 -51.84375 C 41.015625 -50.382812 42.265625 -48.816406 43.109375 -47.140625 C 43.960938 -45.460938 44.414062 -43.828125 44.46875 -42.234375 C 44.46875 -41.859375 44.332031 -41.5 44.0625 -41.15625 C 43.800781 -40.8125 43.378906 -40.640625 42.796875 -40.640625 L 38.5625 -40.640625 C 38.1875 -40.640625 37.800781 -40.742188 37.40625 -40.953125 C 37.007812 -41.171875 36.703125 -41.570312 36.484375 -42.15625 C 36.171875 -44.34375 34.945312 -46.179688 32.8125 -47.671875 C 30.6875 -49.160156 27.921875 -49.90625 24.515625 -49.90625 C 21.054688 -49.90625 18.25 -49.238281 16.09375 -47.90625 C 13.9375 -46.570312 12.859375 -44.492188 12.859375 -41.671875 C 12.859375 -39.867188 13.363281 -38.367188 14.375 -37.171875 C 15.382812 -35.972656 16.976562 -34.921875 19.15625 -34.015625 C 21.34375 -33.109375 24.191406 -32.148438 27.703125 -31.140625 C 31.960938 -29.960938 35.445312 -28.722656 38.15625 -27.421875 C 40.875 -26.117188 42.882812 -24.492188 44.1875 -22.546875 C 45.5 -20.609375 46.15625 -18.125 46.15625 -15.09375 C 46.15625 -11.738281 45.273438 -8.875 43.515625 -6.5 C 41.753906 -4.132812 39.289062 -2.328125 36.125 -1.078125 C 32.957031 0.171875 29.21875 0.796875 24.90625 0.796875 Z M 24.90625 0.796875 "/></g></g></g></svg>